# Blender 4.3.2
# www.blender.org
mtllib Low-Poly_Models.mtl
o Cylinder.001
v 1.044299 -0.076543 0.281568
v 1.044299 2.322830 0.281568
v 0.074840 -0.076543 1.006315
v 0.074840 2.322830 1.006315
v -0.998046 -0.076543 0.340369
v -0.998046 2.322830 0.340369
v -0.691666 -0.076543 -0.795955
v -0.691666 2.322830 -0.795955
v 0.570573 -0.076543 -0.832296
v 0.570573 2.322830 -0.832296
v 0.270830 1.486583 3.639270
v 3.776814 1.731878 1.018273
v -3.609187 1.731878 1.230924
v -2.501185 1.731878 -2.878512
v 2.063613 1.486583 -3.009938
v 1.100627 12.545722 0.502747
v 1.620303 12.427850 0.102985
v 0.525070 12.672633 0.135971
v 0.689032 12.633199 -0.490471
v 1.365923 12.481915 -0.510857
v 0.301509 4.066078 2.340986
v 0.225373 6.283754 1.854711
v 0.340014 8.494227 1.372021
v 0.565994 10.704116 0.891423
v -0.349210 10.905921 0.308205
v -1.110388 8.633167 0.467170
v -1.747057 6.389102 0.628474
v -2.191693 4.086119 0.793388
v 1.453503 4.056003 -1.931788
v 1.136614 6.230789 -1.531007
v 1.009870 8.424374 -1.126651
v 0.987845 10.602655 -0.720328
v 1.392340 10.516687 0.255754
v 1.650405 8.365184 0.386985
v 2.007580 6.185909 0.520078
v 2.554364 4.047465 0.656735
v -0.088492 10.843215 -0.687912
v -0.696393 8.589994 -1.077095
v -1.183879 6.356368 -1.464014
v -1.479721 4.079892 -1.847332
v 0.509829 10.343108 1.332719
v 1.144566 10.190448 -1.092396
v -0.915111 10.707805 0.333796
v 1.814017 10.301667 0.377406
v -0.414110 10.792977 -1.042478
v 0.348543 8.108049 2.016171
v -1.757977 8.566068 0.685143
v 1.334283 8.005255 -1.660798
v 2.304720 8.171712 0.567146
v -1.148756 8.502538 -1.587349
v 0.257437 5.923859 2.580719
v -2.472708 6.323606 0.874076
v 1.525894 5.850131 -2.132234
v 2.753784 6.040759 0.723188
v -1.693711 6.197150 -2.038782
v 0.368833 3.660895 3.295306
v -3.141565 3.720665 1.116131
v 1.991228 3.675690 -2.721201
v 3.543713 3.919505 0.923754
v -2.136701 3.965165 -2.602235
v 0.882604 1.051370 0.237971
v 0.063252 1.051370 0.850500
v -0.843512 1.051370 0.287667
v -0.584571 1.051370 -0.672712
v 0.482227 1.051370 -0.703426
v 1.898405 14.091968 0.284951
v 2.078838 14.051044 0.146152
v 1.698570 14.136033 0.157605
v 1.755498 14.122341 -0.059898
v 1.990517 14.069814 -0.066976
v 0.358001 9.424562 1.506190
v 1.089343 9.316504 -1.237429
v -1.205593 9.772416 0.513208
v 1.809801 9.357863 0.424865
v -0.753598 9.705632 -1.182442
v -1.721351 8.657508 0.673544
v 2.270952 8.263214 0.557549
v -1.122696 8.593988 -1.560071
v 0.348675 8.206986 1.981792
v 1.317319 8.104209 -1.632274
v 0.355800 8.219167 2.079599
v 1.372281 8.110843 -1.713179
v -1.816466 8.692055 0.706662
v 2.373016 8.276486 0.584927
v -1.188246 8.625109 -1.637404
v 0.524144 10.397154 1.309524
v 1.148485 10.246994 -1.075875
v -0.876970 10.755253 0.328203
v 1.806350 10.353930 0.369844
v -0.385287 10.837193 -1.026786
v 0.536428 10.415529 1.416967
v 1.211442 10.253182 -1.162034
v -0.978241 10.802487 0.356409
v 1.922495 10.367988 0.401018
v -0.447017 10.890473 -1.108965
v 0.259055 5.982075 2.549974
v 1.512298 5.908534 -2.106672
v -2.438539 6.375399 0.863720
v 2.725282 6.093268 0.714630
v -1.668826 6.250993 -2.014336
v 0.270327 5.987259 2.695994
v 1.595355 5.909362 -2.227430
v -2.581826 6.402777 0.913135
v 2.877781 6.103932 0.755503
v -1.768012 6.271355 -2.129804
v 0.362475 3.767731 3.229751
v 1.952516 3.779729 -2.667035
v -3.077947 3.829239 1.093942
v 3.473998 4.011259 0.905387
v -2.093172 4.061920 -2.550433
v 0.372371 3.813503 3.370471
v 2.031720 3.825205 -2.783441
v -3.218029 3.878651 1.141532
v 3.619511 4.064397 0.944753
v -2.190344 4.119203 -2.661754
v -3.557977 1.799582 1.214795
v 3.730820 1.798459 1.004942
v -2.464557 1.799401 -2.840562
v 0.270977 1.561514 3.591447
v 2.040166 1.561221 -2.970258
v 0.296660 1.598402 3.915889
v 2.225661 1.597972 -3.238542
v -3.878166 1.856468 1.324552
v 4.069032 1.854819 1.095742
v -2.685977 1.856202 -3.097130
v 2.350899 14.760687 0.286122
vn 0.5956 -0.1031 0.7967
vn -0.5248 -0.0988 0.8455
vn -0.9601 -0.1060 -0.2589
vn 0.1341 -0.9471 -0.2917
vn -0.0286 -0.0988 -0.9947
vn 0.9153 -0.1031 -0.3893
vn -0.0000 -1.0000 -0.0000
vn -0.4281 0.4444 0.7869
vn -0.2669 -0.9505 0.1588
vn -0.1509 -0.9505 -0.2715
vn 0.2413 -0.9683 0.0651
vn -0.0307 -0.9471 0.3196
vn -0.7563 0.6100 -0.2364
vn 0.9115 0.0648 -0.4061
vn -0.7705 0.5896 -0.2424
vn 0.5961 0.1885 0.7804
vn 0.0659 0.2844 -0.9565
vn -0.0080 0.4798 -0.8773
vn 0.0044 0.4666 -0.8844
vn 0.0157 0.4056 -0.9139
vn 0.0530 0.3741 -0.9259
vn 0.5147 0.4752 0.7136
vn 0.5112 0.4933 0.7038
vn 0.5505 0.3948 0.7356
vn 0.5962 0.2917 0.7479
vn -0.8023 0.5561 -0.2168
vn -0.8532 0.4760 -0.2134
vn -0.8329 0.4979 -0.2419
vn -0.7929 0.5614 -0.2369
vn 0.8086 0.4649 -0.3606
vn 0.7897 0.5018 -0.3529
vn 0.8468 0.3787 -0.3735
vn 0.8937 0.2433 -0.3769
vn -0.4433 0.4947 0.7475
vn -0.4648 0.4372 0.7699
vn -0.4357 0.4360 0.7875
vn -0.4062 0.4495 0.7956
vn -0.2365 -0.7939 0.5602
vn -0.4428 -0.7545 -0.4845
vn 0.2439 -0.9673 0.0692
vn -0.6432 -0.7088 0.2897
vn 0.2271 -0.7606 -0.6082
vn 0.1009 -0.9095 -0.4034
vn -0.4584 -0.8606 0.2220
vn 0.1231 -0.9905 0.0607
vn -0.2983 -0.8770 -0.3768
vn -0.1272 -0.8862 0.4454
vn 0.1074 -0.9366 -0.3334
vn -0.3602 -0.9151 0.1813
vn 0.1593 -0.9844 0.0740
vn -0.2278 -0.9228 -0.3108
vn -0.0649 -0.9043 0.4218
vn 0.2263 -0.8952 -0.3838
vn -0.2660 -0.9524 0.1492
vn 0.2765 -0.9602 0.0387
vn -0.1624 -0.9481 -0.2734
vn -0.0333 -0.9510 0.3074
vn 0.9140 0.1160 -0.3887
vn -0.0286 0.1113 -0.9934
vn -0.9586 0.1193 -0.2585
vn -0.5241 0.1113 0.8444
vn 0.5947 0.1160 0.7955
vn 0.2180 0.9759 -0.0044
vn 0.5730 -0.1831 0.7988
vn 0.0287 0.2586 -0.9656
vn -0.4483 0.3473 0.8237
vn 0.8890 -0.2408 -0.3896
vn -0.4305 0.3888 0.8146
vn 0.8462 0.3665 -0.3869
vn -0.8608 0.4461 -0.2449
vn 0.5535 0.3744 0.7440
vn 0.0492 0.3738 -0.9262
vn 0.0277 0.2799 -0.9596
vn 0.5660 0.2791 0.7757
vn -0.9084 0.3330 -0.2529
vn 0.8745 0.2728 -0.4010
vn -0.4648 0.2916 0.8360
vn -0.1984 -0.9563 -0.2149
vn 0.1078 -0.9884 0.1070
vn -0.3608 -0.9300 -0.0702
vn 0.1307 -0.9913 0.0148
vn -0.2941 -0.9455 0.1398
vn 0.0776 0.2806 -0.9567
vn 0.5841 0.1917 0.7887
vn -0.7701 0.5895 -0.2438
vn 0.9063 0.0656 -0.4175
vn -0.4341 0.4463 0.7825
vn -0.3495 -0.8826 -0.3144
vn 0.0806 -0.9845 0.1557
vn -0.4588 -0.8613 -0.2183
vn 0.1182 -0.9928 0.0194
vn -0.3698 -0.9081 0.1967
vn -0.4306 0.4354 0.7906
vn 0.8410 0.3785 -0.3866
vn -0.8322 0.4978 -0.2441
vn 0.5367 0.3950 0.7456
vn 0.0171 0.4055 -0.9140
vn -0.1729 -0.9838 0.0472
vn 0.0618 -0.9973 0.0386
vn -0.1909 -0.9816 -0.0086
vn 0.0652 -0.9975 0.0274
vn -0.1090 -0.9907 -0.0814
vn -0.4688 0.4372 0.7675
vn 0.7838 0.5011 -0.3668
vn -0.8564 0.4758 -0.2006
vn 0.4954 0.4922 0.7158
vn 0.0071 0.4666 -0.8844
vn -0.2144 -0.9234 0.3185
vn 0.3713 -0.9232 -0.0986
vn -0.3694 -0.9158 -0.1580
vn 0.2739 -0.9229 0.2706
vn -0.0752 -0.9111 -0.4052
vn -0.4359 0.4942 0.7522
vn 0.8044 0.4646 -0.3701
vn -0.8024 0.5561 -0.2164
vn 0.5056 0.4750 0.7202
vn 0.0003 0.4792 -0.8777
vn -0.1357 -0.9834 0.1204
vn 0.1705 -0.9853 -0.0139
vn -0.1917 -0.9801 -0.0516
vn 0.1405 -0.9852 0.0981
vn -0.0568 -0.9836 -0.1714
vn 0.8832 -0.2619 -0.3891
vn 0.5190 -0.3526 0.7787
vn -0.4612 0.3106 0.8312
vn 0.0680 0.4257 -0.9023
vn -0.6526 0.7261 -0.2165
s 0
usemtl Material.007
f 61//1 2//1 4//1 62//1
f 62//2 4//2 6//2 63//2
f 63//3 6//3 8//3 64//3
f 64//5 8//5 10//5 65//5
f 65//6 10//6 2//6 61//6
f 1//7 3//7 5//7 7//7 9//7
f 9//58 65//58 61//58 1//58
f 7//59 64//59 65//59 9//59
f 5//60 63//60 64//60 7//60
f 3//61 62//61 63//61 5//61
f 1//62 61//62 62//62 3//62
usemtl Material.008
f 6//4 4//4 11//4 13//4
f 93//8 91//8 16//8 18//8
f 2//9 10//9 15//9 12//9
f 4//10 2//10 12//10 11//10
f 8//11 6//11 13//11 14//11
f 10//12 8//12 14//12 15//12
f 19//13 18//13 68//13 69//13
f 94//14 92//14 20//14 17//14
f 95//15 93//15 18//15 19//15
f 91//16 94//16 17//16 16//16
f 92//17 95//17 19//17 20//17
f 122//18 125//18 40//18 29//18
f 112//19 115//19 39//19 30//19
f 102//20 105//20 38//20 31//20
f 72//21 75//21 37//21 32//21
f 121//22 124//22 36//22 21//22
f 111//23 114//23 35//23 22//23
f 101//24 104//24 34//24 23//24
f 71//25 74//25 33//25 24//25
f 125//26 123//26 28//26 40//26
f 115//27 113//27 27//27 39//27
f 105//28 103//28 26//28 38//28
f 75//29 73//29 25//29 37//29
f 124//30 122//30 29//30 36//30
f 114//31 112//31 30//31 35//31
f 104//32 102//32 31//32 34//32
f 74//33 72//33 32//33 33//33
f 123//34 121//34 21//34 28//34
f 113//35 111//35 22//35 27//35
f 103//36 101//36 23//36 26//36
f 73//37 71//37 24//37 25//37
f 32//38 37//38 45//38 42//38
f 24//39 33//39 44//39 41//39
f 37//40 25//40 43//40 45//40
f 33//41 32//41 42//41 44//41
f 25//42 24//42 41//42 43//42
f 26//43 23//43 46//43 47//43
f 34//44 31//44 48//44 49//44
f 38//45 26//45 47//45 50//45
f 23//46 34//46 49//46 46//46
f 31//47 38//47 50//47 48//47
f 27//48 22//48 51//48 52//48
f 35//49 30//49 53//49 54//49
f 39//50 27//50 52//50 55//50
f 22//51 35//51 54//51 51//51
f 30//52 39//52 55//52 53//52
f 28//53 21//53 56//53 57//53
f 36//54 29//54 58//54 59//54
f 40//55 28//55 57//55 60//55
f 21//56 36//56 59//56 56//56
f 29//57 40//57 60//57 58//57
f 66//63 67//63 70//63 69//63 68//63
f 16//64 17//64 67//64 66//64
f 20//65 19//65 69//65 70//65
f 18//66 16//66 66//66 68//66
f 17//67 20//67 70//67 67//67
f 83//68 81//68 71//68 73//68
f 84//69 82//69 72//69 74//69
f 85//70 83//70 73//70 75//70
f 81//71 84//71 74//71 71//71
f 82//72 85//72 75//72 72//72
f 48//73 50//73 78//73 80//73
f 46//74 49//74 77//74 79//74
f 50//75 47//75 76//75 78//75
f 49//76 48//76 80//76 77//76
f 47//77 46//77 79//77 76//77
f 80//78 78//78 85//78 82//78
f 79//79 77//79 84//79 81//79
f 78//80 76//80 83//80 85//80
f 77//81 80//81 82//81 84//81
f 76//82 79//82 81//82 83//82
f 42//83 45//83 90//83 87//83
f 41//84 44//84 89//84 86//84
f 45//85 43//85 88//85 90//85
f 44//86 42//86 87//86 89//86
f 43//87 41//87 86//87 88//87
f 87//88 90//88 95//88 92//88
f 86//89 89//89 94//89 91//89
f 90//90 88//90 93//90 95//90
f 89//91 87//91 92//91 94//91
f 88//92 86//92 91//92 93//92
f 52//93 51//93 96//93 98//93
f 54//94 53//94 97//94 99//94
f 55//95 52//95 98//95 100//95
f 51//96 54//96 99//96 96//96
f 53//97 55//97 100//97 97//97
f 98//98 96//98 101//98 103//98
f 99//99 97//99 102//99 104//99
f 100//100 98//100 103//100 105//100
f 96//101 99//101 104//101 101//101
f 97//102 100//102 105//102 102//102
f 57//103 56//103 106//103 108//103
f 59//104 58//104 107//104 109//104
f 60//105 57//105 108//105 110//105
f 56//106 59//106 109//106 106//106
f 58//107 60//107 110//107 107//107
f 108//108 106//108 111//108 113//108
f 109//109 107//109 112//109 114//109
f 110//110 108//110 113//110 115//110
f 106//111 109//111 114//111 111//111
f 107//112 110//112 115//112 112//112
f 13//113 11//113 119//113 116//113
f 12//114 15//114 120//114 117//114
f 14//115 13//115 116//115 118//115
f 11//116 12//116 117//116 119//116
f 15//117 14//117 118//117 120//117
f 116//118 119//118 121//118 123//118
f 117//119 120//119 122//119 124//119
f 118//120 116//120 123//120 125//120
f 119//121 117//121 124//121 121//121
f 120//122 118//122 125//122 122//122
f 67//123 70//123 126//123
f 66//124 67//124 126//124
f 68//125 66//125 126//125
f 70//126 69//126 126//126
f 126//127 69//127 68//127
